HIERARCHY
ROOT Pelvis
{
	OFFSET 0.000000 0.000000 0.000000
	CHANNELS 6 Xposition Yposition Zposition Zrotation Yrotation Xrotation 
	JOINT Left_hip
	{
		OFFSET 0.069463 -0.088608 -0.009542
		CHANNELS 3 Zrotation Yrotation Xrotation
		JOINT Left_knee
		{
			OFFSET 0.030639 -0.359740 -0.005288
			CHANNELS 3 Zrotation Yrotation Xrotation
			JOINT Left_ankle
			{
				OFFSET -0.011068 -0.376034 -0.042462
				CHANNELS 3 Zrotation Yrotation Xrotation
				JOINT Left_foot
				{
					OFFSET 0.023192 -0.053321 0.111332
					CHANNELS 3 Zrotation Yrotation Xrotation
					End Site
					{
						OFFSET 0.000000 0.000000 0.000000
					}
				}
			}
		}
	}
	JOINT Right_hip
	{
		OFFSET -0.067438 -0.088025 -0.006263
		CHANNELS 3 Zrotation Yrotation Xrotation
		JOINT Right_knee
		{
			OFFSET -0.035962 -0.366229 -0.008063
			CHANNELS 3 Zrotation Yrotation Xrotation
			JOINT Right_ankle
			{
				OFFSET 0.013608 -0.375719 -0.040481
				CHANNELS 3 Zrotation Yrotation Xrotation
				JOINT Right_foot
				{
					OFFSET -0.021034 -0.045527 0.114617
					CHANNELS 3 Zrotation Yrotation Xrotation
					End Site
					{
						OFFSET 0.000000 0.000000 0.000000
					}
				}
			}
		}
	}
	JOINT Spine1
	{
		OFFSET -0.002610 0.101823 -0.019986
		CHANNELS 3 Zrotation Yrotation Xrotation
		JOINT Spine2
		{
			OFFSET 0.004114 0.128714 -0.000938
			CHANNELS 3 Zrotation Yrotation Xrotation
			JOINT Spine3
			{
				OFFSET 0.002191 0.048470 0.027684
				CHANNELS 3 Zrotation Yrotation Xrotation
				JOINT Neck
				{
					OFFSET -0.002856 0.198873 -0.044022
					CHANNELS 3 Zrotation Yrotation Xrotation
					JOINT Head
					{
						OFFSET 0.002981 0.062960 0.049860
						CHANNELS 3 Zrotation Yrotation Xrotation
						End Site
						{
							OFFSET 0.000000 0.000000 0.000000
						}
					}
				}
				JOINT Left_collar
				{
					OFFSET 0.073708 0.112550 -0.033440
					CHANNELS 3 Zrotation Yrotation Xrotation
					JOINT Left_shoulder
					{
						OFFSET 0.083291 0.030786 -0.008013
						CHANNELS 3 Zrotation Yrotation Xrotation
						JOINT Left_elbow
						{
							OFFSET 0.245601 -0.011792 -0.027873
							CHANNELS 3 Zrotation Yrotation Xrotation
							JOINT Left_wrist
							{
								OFFSET 0.232258 0.008622 -0.000487
								CHANNELS 3 Zrotation Yrotation Xrotation
								JOINT Left_palm
								{
									OFFSET 0.077300 -0.009457 -0.012851
									CHANNELS 3 Zrotation Yrotation Xrotation
									End Site
									{
										OFFSET 0.000000 0.000000 0.000000
									}
								}
							}
						}
					}
				}
				JOINT Right_collar
				{
					OFFSET -0.075339 0.110574 -0.037874
					CHANNELS 3 Zrotation Yrotation Xrotation
					JOINT Right_shoulder
					{
						OFFSET -0.086522 0.031207 -0.009986
						CHANNELS 3 Zrotation Yrotation Xrotation
						JOINT Right_elbow
						{
							OFFSET -0.237313 -0.011478 -0.019859
							CHANNELS 3 Zrotation Yrotation Xrotation
							JOINT Right_wrist
							{
								OFFSET -0.237599 0.007976 -0.003742
								CHANNELS 3 Zrotation Yrotation Xrotation
								JOINT Right_palm
								{
									OFFSET -0.076920 -0.006943 -0.009920
									CHANNELS 3 Zrotation Yrotation Xrotation
									End Site
									{
										OFFSET 0.000000 0.000000 0.000000
									}
								}
							}
						}
					}
				}
			}
		}
	}
}
MOTION
Frames: 5
Frame Time: 0.100000
-0.552952 0.880606 -0.118461 -156.779568 -64.144034 -81.940889 30.525120 53.449955 -61.702926 4.177390 31.592676 129.921236 -26.485117 -13.505872 35.983162 -6.488979 22.457246 -34.601725 -26.561569 -52.969514 -49.486776 -14.174365 -32.497184 132.119437 11.613751 25.424526 27.552346 21.840362 -20.982066 -30.709922 4.580751 -1.800535 75.594101 -0.885361 -3.155778 5.498850 3.442561 -1.090816 -9.324032 -10.676573 -15.158501 2.808797 13.185554 -13.082297 -11.856430 -19.338759 -33.181923 3.433453 -48.431988 -32.676554 4.454264 4.649419 -26.872433 12.809431 20.201448 0.519947 16.879462 -11.483777 -4.160542 -13.026376 17.602796 36.354397 9.170153 47.638308 30.668001 0.724876 -3.249909 35.050698 11.372615 -34.251678 6.277145 39.220783 20.010928 17.205346 -10.263935 
-0.561671 0.892762 -0.117562 -154.365336 -64.488477 -92.155498 32.355207 49.804984 -56.890942 1.741417 29.153094 127.644992 -24.821859 -11.724976 33.262870 -6.406233 20.758057 -30.321454 -28.264046 -48.550208 -44.668023 -12.368355 -30.484992 129.412454 7.359983 25.139991 24.592007 27.578329 -21.490872 -28.386622 4.209701 -2.203096 76.984091 -0.918325 -4.310579 8.238398 3.319677 -1.206177 -9.782868 -12.625793 -13.209285 7.626094 11.661851 -11.282125 -11.869981 -21.730713 -38.726093 6.004566 -41.492785 -32.690593 1.673366 3.931774 -17.154883 7.629787 20.892576 -1.155929 17.939021 -9.115645 -2.834120 -13.050697 19.388069 41.983894 10.668422 42.958415 34.096577 -0.867692 -1.949417 24.014880 8.607207 -34.160789 5.304854 39.673864 16.648254 15.882677 -9.863410 
-0.568848 0.901427 -0.119208 -151.791445 -64.155148 -100.439511 32.289602 46.747911 -56.201329 0.521912 27.021036 127.781903 -22.041986 -11.331386 32.812898 -10.291823 20.461263 -29.249538 -27.925891 -44.402737 -44.128217 -11.054306 -27.884911 127.954924 3.133790 25.542771 23.562521 35.840738 -22.375999 -28.192838 3.562291 -2.795072 78.500634 -1.632699 -4.168749 8.385340 2.739093 -1.670289 -9.591114 -13.289039 -12.864428 12.688910 9.918358 -9.039522 -9.083033 -25.161056 -39.033617 7.711895 -39.792319 -34.308678 0.654587 4.676703 -12.530410 4.265917 21.064994 -1.147999 18.472426 -6.761251 -1.413287 -11.820238 20.438411 43.493383 10.822971 41.894354 37.314711 0.081997 -1.082145 17.210568 6.218717 -32.959918 2.973421 38.299476 13.356122 14.376086 -8.210618 
-0.575635 0.902080 -0.123013 -151.263637 -63.590592 -101.051363 31.190738 46.797791 -60.111854 -0.318532 25.640644 132.849401 -21.736802 -12.996606 31.954400 -9.951401 21.318868 -32.383300 -28.723092 -43.974819 -46.910159 -10.535463 -24.933599 133.292290 1.890172 28.199884 19.234721 37.976826 -25.756749 -32.588458 3.605473 -2.955440 77.367223 -1.365756 -3.806377 6.397794 2.554810 -1.784789 -9.319629 -14.597039 -12.586816 17.313385 8.676674 -8.972939 -7.569243 -21.043429 -36.070662 6.780876 -48.787567 -33.395033 4.865719 7.831567 -15.227089 12.944402 13.184489 1.820714 21.576514 -6.847261 0.282400 -13.593119 15.427000 40.488252 8.683633 50.980502 36.327278 3.496511 -4.291280 20.929627 9.106425 -24.496411 -3.057120 34.242522 11.334187 13.108903 -8.059489 
-0.579450 0.902317 -0.127345 -151.447467 -63.004395 -101.031751 31.469698 49.150958 -61.516240 -2.587441 25.196417 138.295574 -20.988203 -17.042166 28.996185 -10.789908 23.996168 -37.703566 -30.811791 -45.583465 -46.772379 -8.477859 -22.523494 138.837582 -0.351831 32.241576 12.968288 41.905527 -28.513102 -40.025268 3.556068 -3.154214 76.937498 -1.856457 -3.209738 5.492901 2.201615 -2.104446 -7.998499 -14.565658 -12.524597 20.319513 8.586161 -8.227385 -8.501243 -13.810249 -29.453021 4.624664 -60.278101 -31.694199 8.660272 9.798541 -25.963025 24.160174 5.634373 5.029648 17.628975 -6.254510 2.804329 -12.054198 6.320452 34.328343 4.555686 64.309091 33.906933 8.357962 -6.858269 31.021084 16.222990 -14.063279 -9.078644 29.616666 9.363269 12.021707 -6.937158 
